<mxfile host="app.diagrams.net" agent="Mozilla/5.0 (Windows NT 10.0; Win64; x64) AppleWebKit/537.36 (KHTML, like Gecko) Chrome/129.0.0.0 Safari/537.36" version="24.7.16">
  <diagram id="qDSUk_bWkk8SpOtL9t1h" name="Relational_Schema">
    <mxGraphModel dx="833" dy="696" grid="1" gridSize="10" guides="1" tooltips="1" connect="1" arrows="1" fold="1" page="1" pageScale="1" pageWidth="850" pageHeight="1100" math="0" shadow="0">
      <root>
        <mxCell id="0" />
        <mxCell id="1" parent="0" />
        <mxCell id="TeV4sCYmbTOtaYIo3A9U-1" style="edgeStyle=orthogonalEdgeStyle;rounded=0;orthogonalLoop=1;jettySize=auto;html=1;exitX=0.25;exitY=1;exitDx=0;exitDy=0;entryX=0.5;entryY=0;entryDx=0;entryDy=0;labelBorderColor=none;strokeColor=#7EA6E0;strokeWidth=2;" parent="1" source="TeV4sCYmbTOtaYIo3A9U-5" target="TeV4sCYmbTOtaYIo3A9U-47" edge="1">
          <mxGeometry relative="1" as="geometry">
            <Array as="points">
              <mxPoint x="1325" y="310" />
              <mxPoint x="2050" y="310" />
            </Array>
          </mxGeometry>
        </mxCell>
        <mxCell id="TeV4sCYmbTOtaYIo3A9U-2" style="edgeStyle=orthogonalEdgeStyle;rounded=0;orthogonalLoop=1;jettySize=auto;html=1;exitX=0.397;exitY=1.005;exitDx=0;exitDy=0;entryX=0.5;entryY=0;entryDx=0;entryDy=0;exitPerimeter=0;labelBorderColor=none;strokeColor=#7EA6E0;strokeWidth=2;" parent="1" source="TeV4sCYmbTOtaYIo3A9U-5" target="TeV4sCYmbTOtaYIo3A9U-48" edge="1">
          <mxGeometry relative="1" as="geometry">
            <mxPoint x="1550" y="310" as="targetPoint" />
            <Array as="points">
              <mxPoint x="1340" y="300" />
              <mxPoint x="2450" y="300" />
              <mxPoint x="2450" y="510" />
              <mxPoint x="1850" y="510" />
            </Array>
          </mxGeometry>
        </mxCell>
        <mxCell id="TeV4sCYmbTOtaYIo3A9U-3" style="edgeStyle=orthogonalEdgeStyle;rounded=0;orthogonalLoop=1;jettySize=auto;html=1;exitX=0.603;exitY=0.997;exitDx=0;exitDy=0;entryX=0.5;entryY=0;entryDx=0;entryDy=0;exitPerimeter=0;labelBorderColor=none;strokeColor=#7EA6E0;strokeWidth=2;" parent="1" source="TeV4sCYmbTOtaYIo3A9U-5" target="TeV4sCYmbTOtaYIo3A9U-49" edge="1">
          <mxGeometry relative="1" as="geometry">
            <mxPoint x="1560" y="420" as="targetPoint" />
            <Array as="points">
              <mxPoint x="1360" y="290" />
              <mxPoint x="2460" y="290" />
              <mxPoint x="2460" y="610" />
              <mxPoint x="1750" y="610" />
            </Array>
          </mxGeometry>
        </mxCell>
        <mxCell id="TeV4sCYmbTOtaYIo3A9U-5" value="&lt;u&gt;Manager_ID&lt;/u&gt;" style="whiteSpace=wrap;html=1;align=center;fontFamily=Times New Roman;" parent="1" vertex="1">
          <mxGeometry x="1300" y="230" width="100" height="40" as="geometry" />
        </mxCell>
        <mxCell id="TeV4sCYmbTOtaYIo3A9U-6" value="First_Name" style="whiteSpace=wrap;html=1;align=center;fontFamily=Times New Roman;" parent="1" vertex="1">
          <mxGeometry x="1400" y="230" width="100" height="40" as="geometry" />
        </mxCell>
        <mxCell id="TeV4sCYmbTOtaYIo3A9U-7" value="Last_Name" style="whiteSpace=wrap;html=1;align=center;fontFamily=Times New Roman;" parent="1" vertex="1">
          <mxGeometry x="1500" y="230" width="100" height="40" as="geometry" />
        </mxCell>
        <mxCell id="TeV4sCYmbTOtaYIo3A9U-8" value="Password" style="whiteSpace=wrap;html=1;align=center;fontFamily=Times New Roman;" parent="1" vertex="1">
          <mxGeometry x="1600" y="230" width="100" height="40" as="geometry" />
        </mxCell>
        <mxCell id="TeV4sCYmbTOtaYIo3A9U-9" value="Email" style="whiteSpace=wrap;html=1;align=center;fontFamily=Times New Roman;" parent="1" vertex="1">
          <mxGeometry x="1700" y="230" width="100" height="40" as="geometry" />
        </mxCell>
        <mxCell id="l_qlsi_DKXGLRv3bfRzT-3" style="edgeStyle=orthogonalEdgeStyle;rounded=0;orthogonalLoop=1;jettySize=auto;html=1;exitX=0.5;exitY=1;exitDx=0;exitDy=0;entryX=0.5;entryY=0;entryDx=0;entryDy=0;strokeWidth=2;strokeColor=#66FFFF;" edge="1" parent="1">
          <mxGeometry relative="1" as="geometry">
            <mxPoint x="1350" y="372" as="sourcePoint" />
            <mxPoint x="1350" y="707" as="targetPoint" />
            <Array as="points">
              <mxPoint x="1350" y="400" />
              <mxPoint x="2420" y="400" />
              <mxPoint x="2420" y="680" />
              <mxPoint x="1350" y="680" />
            </Array>
          </mxGeometry>
        </mxCell>
        <mxCell id="TeV4sCYmbTOtaYIo3A9U-10" value="&lt;u&gt;Vehicle_ID&lt;/u&gt;" style="whiteSpace=wrap;html=1;align=center;fontFamily=Times New Roman;" parent="1" vertex="1">
          <mxGeometry x="1300" y="335" width="100" height="40" as="geometry" />
        </mxCell>
        <mxCell id="TeV4sCYmbTOtaYIo3A9U-11" value="Vehicle_Name" style="whiteSpace=wrap;html=1;align=center;fontFamily=Times New Roman;" parent="1" vertex="1">
          <mxGeometry x="1400" y="335" width="100" height="40" as="geometry" />
        </mxCell>
        <mxCell id="TeV4sCYmbTOtaYIo3A9U-12" value="Model_Year" style="whiteSpace=wrap;html=1;align=center;fontFamily=Times New Roman;" parent="1" vertex="1">
          <mxGeometry x="1500" y="335" width="100" height="40" as="geometry" />
        </mxCell>
        <mxCell id="TeV4sCYmbTOtaYIo3A9U-13" value="Price_Per_Day" style="whiteSpace=wrap;html=1;align=center;fontFamily=Times New Roman;" parent="1" vertex="1">
          <mxGeometry x="1600" y="335" width="100" height="40" as="geometry" />
        </mxCell>
        <mxCell id="TeV4sCYmbTOtaYIo3A9U-14" value="Seating_Capacity" style="whiteSpace=wrap;html=1;align=center;fontFamily=Times New Roman;" parent="1" vertex="1">
          <mxGeometry x="1700" y="335" width="100" height="40" as="geometry" />
        </mxCell>
        <mxCell id="TeV4sCYmbTOtaYIo3A9U-15" value="Fuel_Type" style="whiteSpace=wrap;html=1;align=center;fontFamily=Times New Roman;" parent="1" vertex="1">
          <mxGeometry x="1800" y="335" width="100" height="40" as="geometry" />
        </mxCell>
        <mxCell id="TeV4sCYmbTOtaYIo3A9U-16" value="Vehicle_Overview" style="whiteSpace=wrap;html=1;align=center;fontFamily=Times New Roman;" parent="1" vertex="1">
          <mxGeometry x="1900" y="335" width="100" height="40" as="geometry" />
        </mxCell>
        <mxCell id="TeV4sCYmbTOtaYIo3A9U-17" value="&lt;h1&gt;&lt;b&gt;Manager&lt;/b&gt;&lt;/h1&gt;" style="text;html=1;align=left;verticalAlign=middle;resizable=0;points=[];autosize=1;strokeColor=none;fillColor=none;fontFamily=Times New Roman;" parent="1" vertex="1">
          <mxGeometry x="1180" y="215" width="120" height="70" as="geometry" />
        </mxCell>
        <mxCell id="TeV4sCYmbTOtaYIo3A9U-18" value="&lt;h1&gt;&lt;b&gt;Vehicle&lt;/b&gt;&lt;/h1&gt;" style="text;html=1;align=left;verticalAlign=middle;resizable=0;points=[];autosize=1;strokeColor=none;fillColor=none;fontFamily=Times New Roman;" parent="1" vertex="1">
          <mxGeometry x="1180" y="320" width="100" height="70" as="geometry" />
        </mxCell>
        <mxCell id="TeV4sCYmbTOtaYIo3A9U-19" style="edgeStyle=orthogonalEdgeStyle;rounded=0;orthogonalLoop=1;jettySize=auto;html=1;entryX=0.5;entryY=0;entryDx=0;entryDy=0;exitX=0.25;exitY=1;exitDx=0;exitDy=0;strokeColor=#67AB9F;strokeWidth=2;" parent="1" source="TeV4sCYmbTOtaYIo3A9U-22" target="TeV4sCYmbTOtaYIo3A9U-50" edge="1">
          <mxGeometry relative="1" as="geometry">
            <mxPoint x="1340" y="470" as="sourcePoint" />
            <Array as="points">
              <mxPoint x="1325" y="490" />
              <mxPoint x="1950" y="490" />
            </Array>
          </mxGeometry>
        </mxCell>
        <mxCell id="TeV4sCYmbTOtaYIo3A9U-20" style="edgeStyle=orthogonalEdgeStyle;rounded=0;orthogonalLoop=1;jettySize=auto;html=1;exitX=0.373;exitY=1.029;exitDx=0;exitDy=0;entryX=0.5;entryY=0;entryDx=0;entryDy=0;exitPerimeter=0;strokeColor=#67AB9F;strokeWidth=2;" parent="1" source="TeV4sCYmbTOtaYIo3A9U-22" target="TeV4sCYmbTOtaYIo3A9U-42" edge="1">
          <mxGeometry relative="1" as="geometry">
            <mxPoint x="1560" y="510" as="targetPoint" />
            <Array as="points">
              <mxPoint x="1337" y="480" />
              <mxPoint x="2430" y="480" />
              <mxPoint x="2430" y="600" />
              <mxPoint x="1350" y="600" />
            </Array>
          </mxGeometry>
        </mxCell>
        <mxCell id="TeV4sCYmbTOtaYIo3A9U-21" style="edgeStyle=orthogonalEdgeStyle;rounded=0;orthogonalLoop=1;jettySize=auto;html=1;exitX=0.694;exitY=0.019;exitDx=0;exitDy=0;entryX=0.5;entryY=1;entryDx=0;entryDy=0;strokeColor=#67AB9F;strokeWidth=2;exitPerimeter=0;" parent="1" source="TeV4sCYmbTOtaYIo3A9U-22" target="TeV4sCYmbTOtaYIo3A9U-52" edge="1">
          <mxGeometry relative="1" as="geometry">
            <Array as="points">
              <mxPoint x="1369" y="390" />
              <mxPoint x="2250" y="390" />
            </Array>
            <mxPoint x="1350" y="428" as="sourcePoint" />
            <mxPoint x="2250" y="378" as="targetPoint" />
          </mxGeometry>
        </mxCell>
        <mxCell id="l_qlsi_DKXGLRv3bfRzT-4" style="edgeStyle=orthogonalEdgeStyle;rounded=0;orthogonalLoop=1;jettySize=auto;html=1;exitX=0.5;exitY=0;exitDx=0;exitDy=0;entryX=0.5;entryY=0;entryDx=0;entryDy=0;strokeColor=#67AB9F;strokeWidth=2;" edge="1" parent="1" source="TeV4sCYmbTOtaYIo3A9U-22" target="TeV4sCYmbTOtaYIo3A9U-55">
          <mxGeometry relative="1" as="geometry">
            <Array as="points">
              <mxPoint x="1350" y="410" />
              <mxPoint x="2410" y="410" />
              <mxPoint x="2410" y="690" />
              <mxPoint x="1450" y="690" />
            </Array>
          </mxGeometry>
        </mxCell>
        <mxCell id="TeV4sCYmbTOtaYIo3A9U-22" value="&lt;u&gt;Customer_ID&lt;/u&gt;" style="whiteSpace=wrap;html=1;align=center;fontFamily=Times New Roman;" parent="1" vertex="1">
          <mxGeometry x="1300" y="425" width="100" height="40" as="geometry" />
        </mxCell>
        <mxCell id="TeV4sCYmbTOtaYIo3A9U-23" value="First_Name" style="whiteSpace=wrap;html=1;align=center;fontFamily=Times New Roman;" parent="1" vertex="1">
          <mxGeometry x="1400" y="425" width="100" height="40" as="geometry" />
        </mxCell>
        <mxCell id="TeV4sCYmbTOtaYIo3A9U-24" value="Last_Name" style="whiteSpace=wrap;html=1;align=center;fontFamily=Times New Roman;" parent="1" vertex="1">
          <mxGeometry x="1500" y="425" width="100" height="40" as="geometry" />
        </mxCell>
        <mxCell id="TeV4sCYmbTOtaYIo3A9U-25" value="Password" style="whiteSpace=wrap;html=1;align=center;fontFamily=Times New Roman;" parent="1" vertex="1">
          <mxGeometry x="1600" y="425" width="100" height="40" as="geometry" />
        </mxCell>
        <mxCell id="TeV4sCYmbTOtaYIo3A9U-26" value="License_ID" style="whiteSpace=wrap;html=1;align=center;fontFamily=Times New Roman;" parent="1" vertex="1">
          <mxGeometry x="1700" y="425" width="100" height="40" as="geometry" />
        </mxCell>
        <mxCell id="TeV4sCYmbTOtaYIo3A9U-27" value="Email" style="whiteSpace=wrap;html=1;align=center;fontFamily=Times New Roman;" parent="1" vertex="1">
          <mxGeometry x="1800" y="425" width="100" height="40" as="geometry" />
        </mxCell>
        <mxCell id="TeV4sCYmbTOtaYIo3A9U-28" value="Mobile_No" style="whiteSpace=wrap;html=1;align=center;fontFamily=Times New Roman;" parent="1" vertex="1">
          <mxGeometry x="1900" y="425" width="100" height="40" as="geometry" />
        </mxCell>
        <mxCell id="TeV4sCYmbTOtaYIo3A9U-29" value="&lt;h1&gt;&lt;b&gt;Customer&lt;/b&gt;&lt;/h1&gt;" style="text;html=1;align=left;verticalAlign=middle;resizable=0;points=[];autosize=1;strokeColor=none;fillColor=none;fontFamily=Times New Roman;" parent="1" vertex="1">
          <mxGeometry x="1180" y="410" width="120" height="70" as="geometry" />
        </mxCell>
        <mxCell id="TeV4sCYmbTOtaYIo3A9U-30" value="Date_Of_Birth" style="whiteSpace=wrap;html=1;align=center;fontFamily=Times New Roman;" parent="1" vertex="1">
          <mxGeometry x="2000" y="425" width="100" height="40" as="geometry" />
        </mxCell>
        <mxCell id="TeV4sCYmbTOtaYIo3A9U-31" value="Street_Name" style="whiteSpace=wrap;html=1;align=center;fontFamily=Times New Roman;" parent="1" vertex="1">
          <mxGeometry x="2100" y="425" width="100" height="40" as="geometry" />
        </mxCell>
        <mxCell id="TeV4sCYmbTOtaYIo3A9U-32" value="City_Name" style="whiteSpace=wrap;html=1;align=center;fontFamily=Times New Roman;" parent="1" vertex="1">
          <mxGeometry x="2200" y="425" width="100" height="40" as="geometry" />
        </mxCell>
        <mxCell id="TeV4sCYmbTOtaYIo3A9U-33" value="Pincode" style="whiteSpace=wrap;html=1;align=center;fontFamily=Times New Roman;" parent="1" vertex="1">
          <mxGeometry x="2300" y="425" width="100" height="40" as="geometry" />
        </mxCell>
        <mxCell id="TeV4sCYmbTOtaYIo3A9U-34" style="edgeStyle=orthogonalEdgeStyle;rounded=0;orthogonalLoop=1;jettySize=auto;html=1;exitX=0.5;exitY=0;exitDx=0;exitDy=0;entryX=0.5;entryY=0;entryDx=0;entryDy=0;strokeColor=#FFB570;strokeWidth=2;" parent="1" source="TeV4sCYmbTOtaYIo3A9U-36" target="TeV4sCYmbTOtaYIo3A9U-51" edge="1">
          <mxGeometry relative="1" as="geometry">
            <mxPoint x="1430" y="490" as="targetPoint" />
            <Array as="points">
              <mxPoint x="1350" y="500" />
              <mxPoint x="2440" y="500" />
              <mxPoint x="2440" y="310" />
              <mxPoint x="2150" y="310" />
            </Array>
          </mxGeometry>
        </mxCell>
        <mxCell id="TeV4sCYmbTOtaYIo3A9U-36" value="&lt;u&gt;Request_ID&lt;/u&gt;" style="whiteSpace=wrap;html=1;align=center;fontFamily=Times New Roman;" parent="1" vertex="1">
          <mxGeometry x="1300" y="536" width="100" height="40" as="geometry" />
        </mxCell>
        <mxCell id="TeV4sCYmbTOtaYIo3A9U-37" value="Request_Date" style="whiteSpace=wrap;html=1;align=center;fontFamily=Times New Roman;" parent="1" vertex="1">
          <mxGeometry x="1400" y="536" width="100" height="40" as="geometry" />
        </mxCell>
        <mxCell id="TeV4sCYmbTOtaYIo3A9U-38" value="From_Date" style="whiteSpace=wrap;html=1;align=center;fontFamily=Times New Roman;" parent="1" vertex="1">
          <mxGeometry x="1500" y="536" width="100" height="40" as="geometry" />
        </mxCell>
        <mxCell id="TeV4sCYmbTOtaYIo3A9U-39" value="To_Date" style="whiteSpace=wrap;html=1;align=center;fontFamily=Times New Roman;" parent="1" vertex="1">
          <mxGeometry x="1600" y="536" width="100" height="40" as="geometry" />
        </mxCell>
        <mxCell id="TeV4sCYmbTOtaYIo3A9U-40" value="Request_Status" style="whiteSpace=wrap;html=1;align=center;fontFamily=Times New Roman;" parent="1" vertex="1">
          <mxGeometry x="1700" y="536" width="100" height="40" as="geometry" />
        </mxCell>
        <mxCell id="TeV4sCYmbTOtaYIo3A9U-41" value="&lt;h1&gt;&lt;b&gt;Booking&lt;br&gt;Request&lt;/b&gt;&lt;/h1&gt;" style="text;html=1;align=left;verticalAlign=middle;resizable=0;points=[];autosize=1;strokeColor=none;fillColor=none;fontFamily=Times New Roman;" parent="1" vertex="1">
          <mxGeometry x="1180" y="520" width="110" height="100" as="geometry" />
        </mxCell>
        <mxCell id="TeV4sCYmbTOtaYIo3A9U-42" value="&lt;u&gt;Customer_ID&lt;/u&gt;" style="whiteSpace=wrap;html=1;align=center;fontFamily=Times New Roman;" parent="1" vertex="1">
          <mxGeometry x="1300" y="630" width="100" height="40" as="geometry" />
        </mxCell>
        <mxCell id="TeV4sCYmbTOtaYIo3A9U-43" value="&lt;u&gt;Comment&lt;/u&gt;" style="whiteSpace=wrap;html=1;align=center;fontFamily=Times New Roman;" parent="1" vertex="1">
          <mxGeometry x="1400" y="630" width="100" height="40" as="geometry" />
        </mxCell>
        <mxCell id="TeV4sCYmbTOtaYIo3A9U-44" value="Rating" style="whiteSpace=wrap;html=1;align=center;fontFamily=Times New Roman;" parent="1" vertex="1">
          <mxGeometry x="1500" y="630" width="100" height="40" as="geometry" />
        </mxCell>
        <mxCell id="TeV4sCYmbTOtaYIo3A9U-45" value="&lt;h1&gt;&lt;b&gt;Feedback&lt;/b&gt;&lt;/h1&gt;" style="text;html=1;align=left;verticalAlign=middle;resizable=0;points=[];autosize=1;strokeColor=none;fillColor=none;fontFamily=Times New Roman;" parent="1" vertex="1">
          <mxGeometry x="1180" y="621" width="120" height="70" as="geometry" />
        </mxCell>
        <mxCell id="TeV4sCYmbTOtaYIo3A9U-46" value="Timestamp" style="whiteSpace=wrap;html=1;align=center;fontFamily=Times New Roman;" parent="1" vertex="1">
          <mxGeometry x="1600" y="630" width="100" height="40" as="geometry" />
        </mxCell>
        <mxCell id="TeV4sCYmbTOtaYIo3A9U-47" value="Manager_ID" style="whiteSpace=wrap;html=1;align=center;fontFamily=Times New Roman;" parent="1" vertex="1">
          <mxGeometry x="2000" y="335" width="100" height="40" as="geometry" />
        </mxCell>
        <mxCell id="TeV4sCYmbTOtaYIo3A9U-48" value="Manager_ID" style="whiteSpace=wrap;html=1;align=center;fontFamily=Times New Roman;" parent="1" vertex="1">
          <mxGeometry x="1800" y="536" width="100" height="40" as="geometry" />
        </mxCell>
        <mxCell id="TeV4sCYmbTOtaYIo3A9U-49" value="Manager_ID" style="whiteSpace=wrap;html=1;align=center;fontFamily=Times New Roman;" parent="1" vertex="1">
          <mxGeometry x="1700" y="630" width="100" height="40" as="geometry" />
        </mxCell>
        <mxCell id="TeV4sCYmbTOtaYIo3A9U-50" value="Customer_ID" style="whiteSpace=wrap;html=1;align=center;fontFamily=Times New Roman;" parent="1" vertex="1">
          <mxGeometry x="1900" y="536" width="100" height="40" as="geometry" />
        </mxCell>
        <mxCell id="TeV4sCYmbTOtaYIo3A9U-51" value="Request_ID" style="whiteSpace=wrap;html=1;align=center;fontFamily=Times New Roman;" parent="1" vertex="1">
          <mxGeometry x="2100" y="335" width="100" height="40" as="geometry" />
        </mxCell>
        <mxCell id="TeV4sCYmbTOtaYIo3A9U-52" value="Customer_ID" style="whiteSpace=wrap;html=1;align=center;fontFamily=Times New Roman;" parent="1" vertex="1">
          <mxGeometry x="2200" y="335" width="100" height="40" as="geometry" />
        </mxCell>
        <mxCell id="TeV4sCYmbTOtaYIo3A9U-53" value="&lt;h1&gt;Rents&lt;/h1&gt;" style="text;html=1;align=left;verticalAlign=middle;resizable=0;points=[];autosize=1;strokeColor=none;fillColor=none;fontFamily=Times New Roman;" parent="1" vertex="1">
          <mxGeometry x="1180" y="696" width="80" height="70" as="geometry" />
        </mxCell>
        <mxCell id="TeV4sCYmbTOtaYIo3A9U-54" value="&lt;u&gt;Vehicle_ID&lt;/u&gt;" style="whiteSpace=wrap;html=1;align=center;fontFamily=Times New Roman;" parent="1" vertex="1">
          <mxGeometry x="1300" y="710" width="100" height="40" as="geometry" />
        </mxCell>
        <mxCell id="TeV4sCYmbTOtaYIo3A9U-55" value="&lt;u&gt;Customer_ID&lt;/u&gt;" style="whiteSpace=wrap;html=1;align=center;fontFamily=Times New Roman;" parent="1" vertex="1">
          <mxGeometry x="1400" y="710" width="100" height="40" as="geometry" />
        </mxCell>
        <mxCell id="l_qlsi_DKXGLRv3bfRzT-1" value="Action_Type" style="whiteSpace=wrap;html=1;align=center;fontFamily=Times New Roman;" vertex="1" parent="1">
          <mxGeometry x="2100" y="536" width="100" height="40" as="geometry" />
        </mxCell>
        <mxCell id="l_qlsi_DKXGLRv3bfRzT-2" value="Action_Date" style="whiteSpace=wrap;html=1;align=center;fontFamily=Times New Roman;" vertex="1" parent="1">
          <mxGeometry x="2000" y="536" width="100" height="40" as="geometry" />
        </mxCell>
      </root>
    </mxGraphModel>
  </diagram>
</mxfile>
